<svg xmlns="http://www.w3.org/2000/svg" viewBox="0 0 510 510"><defs><style>.a{stroke:#000;}.a,.b{stroke-miterlimit:10;}.b{fill:#fff;stroke:#fff;stroke-width:3px;}</style></defs><circle class="a" cx="255" cy="255" r="254.5"/><path class="b" d="M242.72119,161.1582q0,17.75978-5.75976,30.96a44.1427,44.1427,0,0,1-17.83985,20.56055q-12.08276,7.36085-31.27978,7.35938-18.88184,0-31.04-7.35938a44.38912,44.38912,0,0,1-18-20.64062q-5.84253-13.27881-5.84033-31.04,0-17.75978,5.84033-30.87989a44.09662,44.09662,0,0,1,18-20.39941q12.15747-7.27881,31.1997-7.28027,19.03932,0,31.12012,7.28027a43.70958,43.70958,0,0,1,17.83985,20.47949Q242.72119,143.398,242.72119,161.1582Zm-81.11963,0q0,16.8003,6.16016,26.40039,6.15747,9.59913,20.08008,9.59961,14.07714,0,20.15966-9.59961,6.07911-9.60059,6.08008-26.40039,0-16.80029-6-26.47949-6-9.67968-20.08008-9.68066-14.0808,0-20.23974,9.68066Q161.60059,144.36133,161.60156,161.1582Z" transform="translate(-1 -1)"/><path class="b" d="M319.19922,103.39844,276.63965,219.23828H252.48l42.55908-115.83984Z" transform="translate(-1 -1)"/><path class="b" d="M387.3584,103.39844,344.79883,219.23828H320.63867l42.55957-115.83984Z" transform="translate(-1 -1)"/><path class="b" d="M148.96143,253.39844l42.56,115.83984h-24L124.96143,253.39844Z" transform="translate(-1 -1)"/><path class="b" d="M217.12061,253.39844l42.56,115.83984H235.68115L193.12061,253.39844Z" transform="translate(-1 -1)"/><path class="b" d="M369.59961,309.55859q0,29.44044-16.32031,44.16016-16.31983,14.72168-44.96,14.71973H273.91992V254.19824h37.59961q27.03809,0,42.55957,14.16016Q369.59765,282.519,369.59961,309.55859Zm-28.16016.96q0-17.4375-7.44043-25.75976-7.43994-8.31738-21.67968-8.32031h-11.2002v69.59961h8.80078q16.15869,0,23.83985-8.87989Q341.43994,328.27832,341.43945,310.51855Z" transform="translate(-1 -1)"/><path class="b" d="M380.001,356.43848q0-7.83692,4.40039-10.96A17.91173,17.91173,0,0,1,395.041,342.3584a17.28967,17.28967,0,0,1,10.40039,3.12012q4.31982,3.1201,4.31933,10.96,0,7.522-4.31933,10.7998a16.7097,16.7097,0,0,1-10.40039,3.28027,17.30135,17.30135,0,0,1-10.63965-3.28027Q379.998,363.96143,380.001,356.43848Z" transform="translate(-1 -1)"/></svg>